<svg xmlns="http://www.w3.org/2000/svg" xmlns:xlink="http://www.w3.org/1999/xlink" width="75" zoomAndPan="magnify" viewBox="0 0 56.25 56.249997" height="75" preserveAspectRatio="xMidYMid meet" version="1.0"><defs><clipPath id="569e904bb6"><path d="M 0 0 L 55.511719 0 L 55.511719 55.511719 L 0 55.511719 Z M 0 0 " clip-rule="nonzero"/></clipPath></defs><g clip-path="url(#569e904bb6)"><path fill="#3c3935" d="M 47.378906 8.128906 C 42.136719 2.886719 35.167969 0 27.753906 0 C 20.339844 0 13.371094 2.886719 8.128906 8.128906 C 2.886719 13.371094 0 20.339844 0 27.753906 C 0 35.167969 2.886719 42.136719 8.128906 47.378906 C 13.371094 52.621094 20.339844 55.507812 27.753906 55.507812 C 35.167969 55.507812 42.136719 52.621094 47.378906 47.378906 C 52.621094 42.136719 55.507812 35.167969 55.507812 27.753906 C 55.507812 20.339844 52.621094 13.371094 47.378906 8.128906 Z M 9.386719 9.386719 C 14.292969 4.484375 20.816406 1.78125 27.753906 1.78125 C 34.691406 1.78125 41.214844 4.484375 46.121094 9.386719 C 51.027344 14.292969 53.726562 20.816406 53.726562 27.753906 C 53.726562 33.523438 51.859375 39 48.410156 43.503906 C 45.667969 39.667969 41.285156 37.402344 36.527344 37.402344 L 18.984375 37.402344 C 14.222656 37.402344 9.84375 39.667969 7.097656 43.503906 C 3.648438 39 1.78125 33.523438 1.78125 27.753906 C 1.78125 20.816406 4.484375 14.292969 9.386719 9.386719 Z M 27.753906 35.9375 C 34.886719 35.9375 40.6875 30.136719 40.6875 23.003906 C 40.6875 15.875 34.886719 10.074219 27.753906 10.074219 C 20.625 10.074219 14.820312 15.875 14.820312 23.003906 C 14.820312 30.136719 20.625 35.9375 27.753906 35.9375 Z M 27.753906 35.9375 " fill-opacity="1" fill-rule="nonzero"/></g></svg>